<svg id="Layer_1" data-name="Layer 1" xmlns="http://www.w3.org/2000/svg" viewBox="0 0 414.9 125.11"><defs><style>.cls-1{fill:#687ebe;}.cls-2{fill:#9fb7df;}.cls-3{fill:#6b80bf;}.cls-4{fill:#a0b8e0;}.cls-5{fill:#a0b8df;}.cls-6{fill:#697fbf;}.cls-7{fill:#697fbe;}.cls-8{fill:#677ebe;}.cls-9{fill:#7085c2;}.cls-10{fill:#697ebe;}</style></defs><path class="cls-1" d="M137.22,126.76l-.1.54-2.81.18h-9l-.55-.21c-.31-28-.22-56.14,0-84.18l.27,0,1-.32c11.41,0,22.82.1,34.22,0a1.62,1.62,0,0,1,.82,1.63c-.06,2.63,0,5.26,0,7.89a3.8,3.8,0,0,0,.43,1.14c0,.25,0,.5,0,.75-.28.13-.56.37-.83.37-3.6,0-7.2-.06-10.81-.08H138.59c-1.43,0-1.71.29-1.71,1.67,0,7.2,0,14.4,0,21.6,0,1.17.37,1.62,1.61,1.6,7.2-.1,14.41,0,21.62,0,1.53,0,1.09.84,1,1.91,0,7,.12,14,.14,20.95,0,.29-.31.57-.48.86h-11c-.52-3.44-.09-7-.26-10.45,0-.39-.33-.78-.5-1.17h0a3.16,3.16,0,0,0-1.07-.48c-3,0-6,0-9,0-1.71,0-1.92.2-1.92,2q0,16.35,0,32.7A5.15,5.15,0,0,0,137.22,126.76Z" transform="translate(-1.97 -2.42)"/><path class="cls-2" d="M14.1,39.12a3.21,3.21,0,0,0-2.6,2.66A39.4,39.4,0,0,1,10.37,46c-.25.92-.79,1.49-1.81,1.32s-1.45-.95-1.24-2.1c.14-.75.35-1.5.61-2.6L4.56,44.5A1.62,1.62,0,0,1,2.17,44a1.59,1.59,0,0,1,.77-2.23l3.35-2c-1.08-.3-1.86-.55-2.65-.73-1.16-.27-1.27-1.1-1.12-2s1-1.15,1.73-1a25.56,25.56,0,0,1,4.36,1.11c1.49.59,2.58.19,3.8-1l-5.08-1.4c-.53-.15-1.06-.26-1.58-.41C4.53,34,4,33.31,4.32,32.31c.36-1.19,1.34-1.18,2.26-1,2.43.6,4.85,1.27,7.27,1.91a3.82,3.82,0,0,1,.6.19c1.82,1,3.27.06,4.69-.93.74-.52.51-3.93-.21-4.48a4.71,4.71,0,0,0-4.77-.72c-2.49.84-5.07,1.4-7.61,2.06-1.17.31-2-.06-2.24-.95s.26-1.79,1.45-2.12c2.2-.6,4.42-1.17,6.74-1.78a3.44,3.44,0,0,0-4.07-.92,26.51,26.51,0,0,1-3.74,1c-1.22.31-2-.11-2.27-1.13s.31-1.62,1.48-1.94c.72-.21,1.45-.37,2.44-.63C5.11,20.22,4.11,19.61,3.08,19s-1.4-1.23-.9-2.27,1.37-1.06,2.5-.45,2,1.1,3.22,1.82l-.52-2.28c-.29-1.26.09-2.12,1-2.37s1.69.27,2.06,1.52a31.7,31.7,0,0,1,1.05,4c.22,1.54,1.19,2.18,2.7,2.72-.52-2-1-3.84-1.47-5.67-.09-.36-.2-.72-.29-1.09-.28-1.19.07-1.91,1.05-2.19s1.71.28,2,1.4c.48,1.64.9,3.3,1.35,5a16,16,0,0,1,.71,2.65c.17,2.05,1.5,3,3.16,3.78a1.2,1.2,0,0,0,.91,0c.74-.37,1.45-.82,2.16-1.26.2-.12.49-.33.49-.5,0-1.41.5-2.88-.82-4.11-2.17-2-4.22-4.18-6.33-6.29-.93-.93-1.09-2-.4-2.61a1.94,1.94,0,0,1,2.68.38c1.35,1.32,2.67,2.67,4,4,.2.2.44.35.76.61.32-1.26.33-2.25-.69-3.13s-2-1.94-3-2.92c-1.26-1.26-1.41-2-.55-2.85s1.54-.66,2.76.55l1.3,1.27.31-.13c0-1.11,0-2.22,0-3.33,0-1.44.51-2.1,1.57-2.08s1.48.66,1.49,2l0,3.14c0,.07.07.14.21.4l1.7-1.59c.95-.87,1.78-.92,2.52-.13s.49,1.66-.26,2.39c-1.05,1-2,2.16-3.13,3.09s-1.21,2.07-.92,3.62L32,12.26c.35-.3.65-.66,1-.92a1.45,1.45,0,0,1,2.13.13,1.42,1.42,0,0,1,0,2.21c-1,1.05-2.07,2.08-3.1,3.11a26,26,0,0,1-2.6,2.55,4.39,4.39,0,0,0-1.75,4.6A2.82,2.82,0,0,0,28.42,25c.09.12.33.11.44.23,1.4,1.43,2.76,1,4-.12a3.22,3.22,0,0,0,1-1.45c.83-2.93,1.53-5.89,2.36-8.82a2.72,2.72,0,0,1,1.1-1.53,1.66,1.66,0,0,1,1.57.27,2.09,2.09,0,0,1,.46,1.66c-.43,2-1,4-1.53,5.93-.07.27-.09.56-.15,1,1.21-.56,2.26-1,2.53-2.41s.83-3.06,1.23-4.59a1.49,1.49,0,0,1,2-1.18c1,.22,1.17,1,1,1.86s-.35,1.61-.6,2.74a34.31,34.31,0,0,1,3.47-1.88,2.37,2.37,0,0,1,1.83.12,1.77,1.77,0,0,1,.52,1.5,2.28,2.28,0,0,1-1,1.17c-1,.64-2,1.2-3.18,1.9.93.26,1.67.46,2.41.68,1.2.34,1.72,1,1.46,1.93-.3,1.06-1.06,1.46-2.26,1.14s-2.28-.55-3.38-.95c-1.57-.57-3-.7-4.32.8,1.14.33,2.29.67,3.45,1s2.19.54,3.27.86,1.7,1.21,1.32,2.15a1.6,1.6,0,0,1-2.17.92c-3.14-.85-6.29-1.66-9.45-2.48-.62-.16-3.54,1.06-3.58,1.61a9.92,9.92,0,0,0,.13,3.4c.25.85,2.93,1.63,3.87,1.39l9-2.32a1.77,1.77,0,0,1,2.25,1c.3.94-.15,1.67-1.36,2-2.24.63-4.49,1.21-6.93,1.86,1.3.88,2.34,1.61,3.89,1,1.3-.53,2.74-.74,4.1-1.15a1.54,1.54,0,0,1,2.1,1c.43,1.09-.22,1.67-1.12,2s-1.61.45-2.64.73c1.2.73,2.3,1.34,3.34,2,.38.26.85.71.87,1.09a2.22,2.22,0,0,1-.56,1.64,1.94,1.94,0,0,1-1.7.16A38.06,38.06,0,0,1,43.92,43c.22.95.37,1.61.52,2.27.29,1.26-.08,2.12-1,2.37s-1.68-.25-2-1.51a31.26,31.26,0,0,1-1.05-4c-.23-1.53-1.19-2.18-2.71-2.74.52,2,1,3.84,1.47,5.67.09.36.18.73.29,1.09a1.54,1.54,0,0,1-1,2.19c-.92.31-1.69-.19-2-1.35-.64-2.24-1.23-4.5-1.84-6.76a14,14,0,0,0-.57-2,4,4,0,0,0-1.13-1.67c-1.85-1.31-3.39-1.16-5.06.33a.63.63,0,0,0-.24.41c.05,1.44-.4,2.9,1,4.15,2.2,1.93,4.19,4.11,6.26,6.18.92.93,1,1.91.29,2.63s-1.7.65-2.65-.3c-1.54-1.52-3-3.07-4.72-4.78-.38,1.45-.38,2.43.63,3.32,1.17,1,2.22,2.17,3.31,3.27.92.95,1,1.73.19,2.5s-1.55.67-2.5-.27a7.8,7.8,0,0,0-1.89-1.56c0,1.24,0,2.47,0,3.71s-.63,1.88-1.61,1.83a1.67,1.67,0,0,1-1.62-1.76c-.08-1.33,0-2.67,0-4.35-.67.64-1.16,1.1-1.64,1.57-1,1-2,1.09-2.64.39s-.67-1.58.34-2.61a28.32,28.32,0,0,1,2.59-2.55A3.45,3.45,0,0,0,24,44.67c-.4.38-.75.7-1.09,1-1.31,1.29-2.6,2.61-3.92,3.9-.93.91-1.65,1-2.38.17a1.57,1.57,0,0,1,.13-2.43l.62-.62c2-2,4.06-4,6-6.06a2.81,2.81,0,0,0,.71-1.61c.11-2.51-.34-3.14-2.72-4.1a1.13,1.13,0,0,0-.35-.09,6,6,0,0,0-3.21,2.7c-.81,3.06-1.58,6.14-2.48,9.18A2.4,2.4,0,0,1,14.06,48a1.51,1.51,0,0,1-1.38-.56,2.91,2.91,0,0,1-.17-1.87c.4-1.83.94-3.63,1.42-5.45A9.6,9.6,0,0,0,14.1,39.12Z" transform="translate(-1.97 -2.42)"/><path class="cls-3" d="M331.59,85q0-20.42,0-40.82c0-1.3.36-1.63,1.62-1.59,3.27.09,6.54.06,9.81,0,1,0,1.31.3,1.3,1.3q0,41.13,0,82.27c0,1.11-.43,1.34-1.41,1.33-3.31,0-6.62-.07-9.93,0-1.15,0-1.39-.36-1.39-1.44C331.61,112.4,331.59,98.71,331.59,85Z" transform="translate(-1.97 -2.42)"/><path class="cls-4" d="M71.21,12.94c-.27-1.18-.62-2.34-.77-3.53,0-.45.35-.95.54-1.43.4.32,1,.56,1.18,1,.53,1.53.9,3.12,1.32,4.69s1.69,2.14,3.09,1.28a1.89,1.89,0,0,0,.23-2.78C75.67,11,74.5,9.82,73.34,8.68c-.54-.54-1.06-1.16-.36-1.81s1.22-.08,1.72.44c.74.78,1.5,1.54,2.25,2.32l.42-.24a8,8,0,0,0-.78-1.67C76.12,7.09,75.41,6.63,75,6c-.25-.34-.16-.92-.23-1.39a7,7,0,0,1,1.46.17c.32.11.55.48,1.06.94a9.19,9.19,0,0,1,0-2.14c.11-.43.58-.77.89-1.15.35.39.87.72,1,1.17a8,8,0,0,1,0,2.06c.43-.36.67-.7,1-.79a6.9,6.9,0,0,1,1.51-.13c0,.48,0,1.06-.19,1.42-.37.53-1,.85-1.44,1.37a16.26,16.26,0,0,0-1.1,2l.39.27c.9-.78,1.83-1.53,2.7-2.33.49-.46,1-.74,1.52-.22s.29,1.13-.19,1.61c-1.17,1.19-2.45,2.3-3.51,3.59a2.78,2.78,0,0,0-.56,2.12c.13.52.94,1,1.54,1.27s1.9-.92,2.12-1.76c.43-1.61.8-3.25,1.31-4.83.14-.4.75-.65,1.14-1,.21.47.64,1,.58,1.39a33.66,33.66,0,0,1-.76,3.53l-.09.13.12-.1c.42-.37,1-.67,1.23-1.13.36-.74.4-1.63.76-2.37.21-.43.77-.68,1.18-1A8.25,8.25,0,0,1,89,10.05a3.87,3.87,0,0,1-.19,1.24l1.52-.76c.62-.33,1.27-.67,1.75.13s-.26,1.08-.76,1.41-.91.57-1.53.95a5.58,5.58,0,0,1,1.35.45A4.55,4.55,0,0,1,92,14.53c-.4.23-.81.66-1.2.64-.78-.05-1.54-.41-2.32-.51a16.19,16.19,0,0,0-2.2,0l0,.47c1.06.27,2.12.53,3.17.83.7.19,1.68.25,1.37,1.35s-1.11.63-1.78.47a42,42,0,0,0-4.62-1.13,2.91,2.91,0,0,0-2.19.74,2,2,0,0,0,0,2,2.77,2.77,0,0,0,2.12.81A46.16,46.16,0,0,0,89.06,19c.66-.16,1.48-.54,1.73.53s-.65,1.11-1.3,1.3c-1,.3-2.07.55-3.1.82l0,.42a5.28,5.28,0,0,0,1.63.26c.91-.12,1.77-.53,2.68-.64.4,0,.85.38,1.28.59a4.64,4.64,0,0,1-.78,1.1,4.84,4.84,0,0,1-1.34.45A10.1,10.1,0,0,1,91.59,25a3.55,3.55,0,0,1,.53,1.32,4.49,4.49,0,0,1-1.54.26,7,7,0,0,1-1.68-.9,7,7,0,0,1,.14,1.6c-.05.35-.36.93-.55.92a1.39,1.39,0,0,1-1.08-.56,11.94,11.94,0,0,1-.8-2.63,1.34,1.34,0,0,0-1.31-1.25l-.12-.1.09.12c.27,1.18.61,2.34.76,3.53.06.45-.34,1-.53,1.43-.41-.32-1-.56-1.18-1-.53-1.54-.9-3.13-1.32-4.7a2,2,0,0,0-3.44-1.17c-.55.45-.47,2.07.18,2.73q1.71,1.76,3.47,3.46c.52.52,1,1.16.29,1.69-.29.22-1.21,0-1.6-.32A25.41,25.41,0,0,1,79.56,27l-.46.28A8.54,8.54,0,0,0,79.89,29c.47.63,1.18,1.09,1.63,1.73.24.34.16.92.22,1.39a8,8,0,0,1-1.47-.17c-.28-.08-.5-.39-1.06-.86a7.48,7.48,0,0,1,0,1.94,5.28,5.28,0,0,1-.94,1.27,4.66,4.66,0,0,1-1-1.34,9.05,9.05,0,0,1,0-2.19c-.51.46-.8.88-1.18,1a4.45,4.45,0,0,1-1.37,0c0-.46-.12-1,.1-1.35.48-.68,1.2-1.17,1.72-1.82a10.63,10.63,0,0,0,.93-1.73l-.38-.27c-.87.85-1.74,1.69-2.6,2.56-.48.47-1,.89-1.61.31s-.16-1.1.29-1.55c1.15-1.16,2.27-2.35,3.48-3.45A2.1,2.1,0,0,0,77.09,22a2.15,2.15,0,0,0-1.74-.94,2,2,0,0,0-1.91,1.69c-.34,1.59-.84,3.14-1.23,4.72-.17.71-.5,1.23-1.28,1s-.72-.86-.51-1.53c.32-1.06.57-2.15.84-3.23l-.36-.25a4.37,4.37,0,0,0-1,1.13c-.34.84-.45,1.78-.8,2.62-.15.36-.66.56-1,.83a3.64,3.64,0,0,1-.71-1.09,5,5,0,0,1,.15-1.45c-.66.35-1.21.63-1.74.94s-1.23.4-1.44-.31c-.11-.35.24-1,.56-1.28a10.57,10.57,0,0,1,1.72-1.07,5.43,5.43,0,0,1-1.42-.48,4.85,4.85,0,0,1-.79-1.08c.44-.22.89-.63,1.31-.6.78.06,1.53.45,2.31.55a11,11,0,0,0,2-.06l0-.48-3.27-.89c-.68-.19-1.37-.4-1.17-1.3s.95-.7,1.61-.53c1.53.41,3.08.75,4.6,1.22a2,2,0,0,0,2.35-.7,2.5,2.5,0,0,0,.06-2.23,2,2,0,0,0-2.4-.8c-1.46.51-3,.81-4.48,1.18-.68.17-1.5.5-1.74-.53s.66-1.1,1.32-1.29c1.07-.31,2.15-.57,3.23-.86l0-.39a11.07,11.07,0,0,0-2.06-.16c-.73.07-1.44.47-2.18.51a4.26,4.26,0,0,1-1.49-.51,9.79,9.79,0,0,1,1-1.17c.21-.21.58-.25,1.11-.46a8.5,8.5,0,0,1-1.61-1,4.56,4.56,0,0,1-.63-1.29,4.76,4.76,0,0,1,1.54-.25,6.92,6.92,0,0,1,1.68.89,7.53,7.53,0,0,1-.14-1.59c0-.35.37-.93.56-.92a1.41,1.41,0,0,1,1.08.56,11.94,11.94,0,0,1,.8,2.63A1.34,1.34,0,0,0,71.18,13l.12.1Z" transform="translate(-1.97 -2.42)"/><path class="cls-5" d="M28.94,86.31A4.51,4.51,0,0,0,29,87.42c.25.71,0,1.29-.64,1.32-.38,0-1-.52-1.16-.94-.36-.79-.44-1.7-.78-2.5a5.15,5.15,0,0,0-1-1.22l-.32.19c.3,1.16.55,2.32.9,3.46.22.73.14,1.38-.61,1.47-.34,0-1-.55-1.13-1a44.74,44.74,0,0,1-1.35-4.82,2,2,0,0,0-1.88-1.55,2.22,2.22,0,0,0-1.78.93,1.93,1.93,0,0,0,.51,2.38c1.21,1.09,2.34,2.28,3.47,3.45.47.48,1,1,.27,1.7s-1.15.15-1.62-.33c-.83-.86-1.68-1.71-2.52-2.57l-.39.22a7.35,7.35,0,0,0,.72,1.64c.5.66,1.25,1.13,1.72,1.81a3.92,3.92,0,0,1,.25,1.54,8,8,0,0,1-1.56-.21c-.31-.1-.54-.45-1-.86a9.56,9.56,0,0,1,0,2.18c-.11.41-.62.72-.95,1.07-.26-.36-.69-.69-.76-1.08a17.53,17.53,0,0,1,0-2.57c-.57.5-.84.89-1.22,1a5.08,5.08,0,0,1-1.42.13c0-.44-.07-1,.15-1.3.56-.72,1.33-1.28,1.9-2a7.1,7.1,0,0,0,.73-1.63l-.42-.26-2.58,2.68c-.49.5-1.11.86-1.57.17a1.6,1.6,0,0,1,.23-1.48A40.35,40.35,0,0,1,16.58,85a2,2,0,0,0,.62-2.46,2.21,2.21,0,0,0-1.77-1,2,2,0,0,0-1.92,1.66c-.29,1.51-.78,3-1.18,4.47-.18.7-.31,1.55-1.31,1.26-.84-.24-.74-.94-.51-1.65.32-1,.55-2.07.82-3.11L11,84a4.39,4.39,0,0,0-1,1.1,13.14,13.14,0,0,0-.71,2.39c-.16.71-.48,1.22-1.26,1.07s-.78-.81-.57-1.47a3.08,3.08,0,0,0,.08-.75l.08-.15-.15.09A8.07,8.07,0,0,1,5.82,87a3.87,3.87,0,0,1-1.41-.29c.15-.43.18-1,.47-1.25a9.37,9.37,0,0,1,1.8-1.07,5.33,5.33,0,0,1-1.28-.55,5.47,5.47,0,0,1-.81-1.07c.43-.22.88-.65,1.29-.62.81.07,1.6.47,2.42.59a9.61,9.61,0,0,0,1.92-.11V82.2l-3-.89c-.28-.08-.65-.07-.82-.26a5.91,5.91,0,0,1-.64-1.13c.4-.19.85-.59,1.2-.52,1.67.36,3.32.85,5,1.28a2,2,0,1,0,.21-3.8c-1.61.42-3.21.92-4.85,1.24-.48.1-1.06-.3-1.6-.46.37-.42.66-1,1.12-1.22a31.59,31.59,0,0,1,3.36-1l0-.39a8.24,8.24,0,0,0-2-.22c-.74.08-1.44.51-2.17.56-.48,0-1-.38-1.46-.59a8.34,8.34,0,0,1,1-1.1,4.34,4.34,0,0,1,1.14-.44,11.45,11.45,0,0,1-1.76-1.14c-.28-.28-.32-.81-.47-1.23.44-.11.92-.4,1.3-.3a9.55,9.55,0,0,1,1.8.86l.1.06-.11,0a4,4,0,0,1-.07-1.24A5.87,5.87,0,0,1,8.1,69c.39.24,1,.41,1.12.76.36.83.45,1.77.79,2.62a6.38,6.38,0,0,0,1,1.36l.36-.22c-.3-1.15-.55-2.32-.9-3.46-.22-.73-.14-1.38.61-1.47.35,0,1,.56,1.14,1,.53,1.53.94,3.11,1.34,4.69s1.9,2.29,3.5,1c.52-.42.41-2-.19-2.61-1.23-1.25-2.52-2.45-3.7-3.75-.27-.3-.2-.9-.28-1.36.5,0,1.17-.12,1.49.14,1,.82,1.82,1.8,2.72,2.72l.4-.24a7.37,7.37,0,0,0-.73-1.64c-.5-.66-1.25-1.14-1.71-1.81-.27-.39-.18-1-.24-1.54a8.78,8.78,0,0,1,1.55.23c.29.09.49.43,1,.89a9.57,9.57,0,0,1,0-2.12c.1-.44.55-.8.84-1.19.3.39.75.73.86,1.17a9,9,0,0,1,0,2c.39-.32.61-.61.88-.69.53-.17,1.33-.51,1.61-.28.65.54.22,1.18-.31,1.68a12.65,12.65,0,0,0-1.5,1.52A11.11,11.11,0,0,0,19,70.16l.37.23c.86-.77,1.72-1.54,2.6-2.29.51-.44,1.06-1,1.71-.23s.1,1.14-.37,1.6c-1.12,1.12-2.2,2.3-3.39,3.36a2,2,0,0,0-.6,2.47,2.27,2.27,0,0,0,1.82,1A2,2,0,0,0,23,74.63c.28-1.59.79-3.15,1.21-4.72.17-.62.42-1.31,1.24-1.08s.78.82.56,1.53c-.34,1.11-.57,2.25-.85,3.38l.3.24a5.7,5.7,0,0,0,1.07-1.31c.32-.76.34-1.65.68-2.39.19-.43.77-1,1.15-1,.68,0,.9.6.66,1.31a4.07,4.07,0,0,0-.09,1.11l-.11.1h.07a.36.36,0,0,0,0-.09c.48-.24,1-.47,1.44-.72s1.22-.52,1.64.19-.26,1.12-.74,1.46a17,17,0,0,1-1.63.89,7.23,7.23,0,0,1,1.65.54c.29.19.64.74.55,1a1.29,1.29,0,0,1-1,.68c-.91-.1-1.78-.45-2.68-.58a9.56,9.56,0,0,0-1.85.09l-.05.47c1,.29,2.09.54,3.12.86.63.21,1.63.25,1.41,1.23s-1.11.79-1.86.6c-1.54-.4-3.09-.75-4.6-1.21a2,2,0,0,0-2.27.87,2,2,0,0,0,0,1.87,2,2,0,0,0,2.27.89c1.63-.49,3.31-.84,4.95-1.31.75-.22,1.36,0,1.46.64.05.33-.56.95-1,1.11-1.11.43-2.3.68-3.45,1v.45a9.93,9.93,0,0,0,1.88.1c.82-.11,1.61-.5,2.42-.56.42,0,.86.39,1.29.61A4.3,4.3,0,0,1,31.13,84a5,5,0,0,1-1.46.43,8.73,8.73,0,0,1,1.76,1.07,4.38,4.38,0,0,1,.6,1.41,3.82,3.82,0,0,1-1.41.23,7.66,7.66,0,0,1-1.69-.8l-.1,0Z" transform="translate(-1.97 -2.42)"/><path class="cls-1" d="M209.84,84.93c0,9.55,0,19.1,0,28.65,0,1.19-.36,1.46-1.49,1.45-3.18,0-6.36.09-9.54.09-.29,0-.65-.36-.83-.65s0-.57,0-.86q0-28.51,0-57c0-1.66,0-1.66,1.67-1.66,3,0,6,0,8.93,0,1,0,1.27.28,1.27,1.27C209.82,65.75,209.84,75.34,209.84,84.93Z" transform="translate(-1.97 -2.42)"/><path class="cls-1" d="M234.21,115.68c0,3.44,0,7.06,0,10.55,0,.75-.28,1-1,1q-10.94,0-21.85,0c-.75,0-1.05-.29-1-1,0-3.26,0-6.53,0-9.79,0-.3.44-.85.68-.85C218.86,115.6,226.27,115.72,234.21,115.68Z" transform="translate(-1.97 -2.42)"/><path class="cls-6" d="M234.21,54.44H212.4c-2.09,0-2.09,0-2.09-2.15,0-2.68,0-5.36,0-8,0-1,.18-1.27,1.33-1.24,4.35.13,8.71.07,13.07.05,2.93,0,5.86-.08,8.79-.07a1.05,1.05,0,0,1,.7.72C234.22,47.3,234.21,50.89,234.21,54.44Z" transform="translate(-1.97 -2.42)"/><path class="cls-1" d="M234.47,115.06c0-3.7,0-7.38,0-11,0-.21.45-.61.7-.61,3.43,0,6.87-.05,10.3,0a1.13,1.13,0,0,1,.77.79q.08,5,0,10c0,.29-.46.82-.71.82C242.23,115.05,237.62,115.36,234.47,115.06Z" transform="translate(-1.97 -2.42)"/><path class="cls-1" d="M404.54,115.57v11c0,.9-.66.69-1.16.7-7.09,0-14.17-.06-21.25,0-1.12,0-1.56-.25-1.53-1.46.07-3.39,0-6.77,0-10.26Z" transform="translate(-1.97 -2.42)"/><path class="cls-7" d="M404.8,115.2c0-3.74,0-7.28,0-10.83,0-.69.35-1,1.11-1,3.42,0,6.85-.08,10.27-.08.22,0,.62.45.63.69,0,3.47.05,6.94,0,10.4a1.13,1.13,0,0,1-.81.8C412.33,115.22,408.65,115.2,404.8,115.2Z" transform="translate(-1.97 -2.42)"/><path class="cls-7" d="M404.86,54.91c3.58,0,7,.06,10.59,0,1.13,0,1.44.38,1.42,1.46-.06,3,0,6,0,9,0,.92-.1,1.25-1.25,1.19-3.09-.17-6.2-.12-9.29,0-1.25,0-1.58-.4-1.55-1.58C404.89,61.56,404.7,58.3,404.86,54.91Z" transform="translate(-1.97 -2.42)"/><path class="cls-8" d="M64.15,91.35c0,.24-.05.49-.07.74a5,5,0,0,0-.41,1.42q0,15.76,0,31.53c0,1.23-.37,1.54-1.56,1.51q-4-.14-7.92,0c-1.13,0-1.4-.33-1.4-1.42q.06-35.11,0-70.22H63.64c0,6.79,0,13.58,0,20.37,0,1,.23,2,.2,3s.52,1.3,1.47,1.3c7.12,0,14.24,0,21.36,0,2.12,0,2.61-.5,2.61-2.66q0-11,0-22c3.4,0,6.81,0,10.22,0,.74,0,1.25.12,1,1-1.22,22.84-.06,46.12-.42,69.1,0,1.2-.3,1.58-1.52,1.54-2.56-.1-5.12,0-7.67,0-1.65,0-1.65,0-1.65-1.61q0-15.76,0-31.53c0-.86,0-1.68-1-2l-.25-.25c-.23-.83-.83-1-1.63-1-1.54,0-3.09,0-4.64,0-5.18,0-10.37,0-15.55,0C65.32,90.1,64.38,90.16,64.15,91.35Z" transform="translate(-1.97 -2.42)"/><path class="cls-9" d="M89.31,54.91q0,11,0,22c0,2.16-.49,2.66-2.61,2.66-7.12,0-14.24,0-21.36,0-1,0-1.5-.18-1.47-1.3s-.2-2-.2-3c0-6.79,0-13.58,0-20.37a5,5,0,0,0,.5-1.45q.08-4.65,0-9.3c0-.95.26-1.33,1.28-1.32q10.88,0,21.76,0c.88,0,1.16.27,1.14,1.15,0,3.05,0,6.11,0,9.16C88.32,53.91,88.31,54.7,89.31,54.91Zm-25,12c0,3.6,0,7.2,0,10.8,0,.94.25,1.36,1.28,1.36q10.62,0,21.25,0c1,0,1.3-.38,1.3-1.34q0-10.74,0-21.47c0-1-.27-1.38-1.34-1.37q-10.56.07-21.13,0c-1,0-1.38.29-1.36,1.35C64.36,59.75,64.33,63.31,64.33,66.87Z" transform="translate(-1.97 -2.42)"/><path class="cls-6" d="M295.12,91c0,11.64,0,23.28,0,34.92,0,1.07-.22,1.47-1.37,1.44q-4.59-.12-9.18,0c-1.15,0-1.38-.35-1.38-1.43q0-34.61,0-69.22c0-2,0-2-2-2-6.92,0-13.84,0-20.75,0-1.23,0-1.47-.39-1.45-1.5.07-3,.05-6,0-9,0-1,.28-1.32,1.29-1.32q28.86,0,57.73,0c1,0,1.23.27,1.21,1.21q-.07,4.65,0,9.29c0,1-.26,1.36-1.33,1.35-7.09,0-14.17,0-21.26,0-1.58,0-1.6,0-1.6,1.63Z" transform="translate(-1.97 -2.42)"/><path class="cls-10" d="M161.59,54.91c3.72,0,7.36,0,11,.06.27,0,.74.72.75,1.11.06,2.68,0,5.36,0,8V77.66c0,1.29-.23,1.34-1.47,1.31-3-.08-6-.06-9,0-.94,0-1.4-.1-1.39-1.17C161.6,70.18,161.35,62.55,161.59,54.91Z" transform="translate(-1.97 -2.42)"/><path class="cls-1" d="M161.5,115.23c0-3.56,0-7.12,0-10.68,0-.94.29-1.22,1.22-1.2,3.14.05,6.29.06,9.43,0,1.06,0,1.25.38,1.25,1.32,0,6.82,0,13.64,0,20.47,0,2.14,0,2.14-2.22,2.14-2.77,0-5.54,0-8.3,0-1.06,0-1.37-.35-1.36-1.38C161.54,122.35,161.5,118.79,161.5,115.23Z" transform="translate(-1.97 -2.42)"/><path class="cls-7" d="M234.59,54.59c3.58,0,7,.06,10.59,0,1.13,0,1.44.38,1.42,1.46-.06,3,0,6,0,9,0,.92-.1,1.25-1.25,1.19-3.09-.17-6.2-.12-9.29,0-1.25,0-1.58-.4-1.55-1.59C234.62,61.24,234.43,58,234.59,54.59Z" transform="translate(-1.97 -2.42)"/><path class="cls-1" d="M380.19,84.79c0,9.54,0,19.09,0,28.64,0,1.19-.36,1.46-1.49,1.45-3.18,0-6.36.09-9.54.09-.28,0-.64-.36-.82-.65s0-.57,0-.86v-57c0-1.67,0-1.67,1.67-1.67,3,0,5.95,0,8.93,0,1,0,1.28.29,1.27,1.28C380.18,65.61,380.19,75.2,380.19,84.79Z" transform="translate(-1.97 -2.42)"/><path class="cls-6" d="M404.28,54.7c-7.41,0-14.61,0-21.81,0-2.09,0-2.09,0-2.09-2.15,0-2.68,0-5.36,0-8,0-1,.18-1.27,1.33-1.24,4.35.13,8.72.07,13.07,0,2.93,0,5.86-.09,8.79-.07a1,1,0,0,1,.7.72C404.3,47.56,404.28,51.15,404.28,54.7Z" transform="translate(-1.97 -2.42)"/></svg>